<svg width="621" height="804" viewBox="0 0 621 804" fill="none" xmlns="http://www.w3.org/2000/svg">
<g filter="url(#filter0_d)">
<ellipse rx="37.587" ry="87.3322" transform="matrix(0.854737 -0.519061 0.491307 0.870987 545.966 413.456)" fill="#FFCCFA"/>
<ellipse rx="37.587" ry="87.3322" transform="matrix(-0.854737 -0.519061 -0.491307 0.870987 75.0338 432.474)" fill="#FFCCFA"/>
<rect x="109" width="409" height="716" rx="187" fill="#FFCCFA"/>
<path d="M278.153 708.372C258.118 686.009 236.568 679.467 207.238 681.941C187.271 715.516 145.273 703.372 126.684 751.235C137.011 800.526 286.415 814.099 298.808 751.235C294.153 736.947 282.284 723.374 278.153 708.372Z" fill="#FFCCFA" stroke="#FFCCFA"/>
<path d="M355.265 709.579C375.3 687.216 396.85 680.674 426.18 683.148C446.146 716.723 488.145 704.579 506.734 752.442C496.407 801.733 347.003 815.306 334.61 752.442C339.264 738.154 351.134 724.581 355.265 709.579Z" fill="#FFCCFA" stroke="#FFCCFA"/>
<ellipse cx="314.37" cy="162.153" rx="169.37" ry="82.1528" fill="#322831"/>
<path d="M216 175.593C216 139.16 269.014 138.446 269.014 175.593" stroke="#D2FFFC" stroke-width="13" stroke-linecap="round"/>
<path d="M365 175.593C365 139.16 418.014 138.446 418.014 175.593" stroke="#D2FFFC" stroke-width="13" stroke-linecap="round"/>
</g>
<defs>
<filter id="filter0_d" x="17.429" y="0" width="586.142" height="803.153" filterUnits="userSpaceOnUse" color-interpolation-filters="sRGB">
<feFlood flood-opacity="0" result="BackgroundImageFix"/>
<feColorMatrix in="SourceAlpha" type="matrix" values="0 0 0 0 0 0 0 0 0 0 0 0 0 0 0 0 0 0 127 0" result="hardAlpha"/>
<feOffset dy="4"/>
<feGaussianBlur stdDeviation="2"/>
<feComposite in2="hardAlpha" operator="out"/>
<feColorMatrix type="matrix" values="0 0 0 0 0 0 0 0 0 0 0 0 0 0 0 0 0 0 0.25 0"/>
<feBlend mode="normal" in2="BackgroundImageFix" result="effect1_dropShadow"/>
<feBlend mode="normal" in="SourceGraphic" in2="effect1_dropShadow" result="shape"/>
</filter>
</defs>
</svg>
